<mxfile host="app.diagrams.net" modified="2024-07-10T11:46:31.319Z" agent="Mozilla/5.0 (Windows NT 10.0; Win64; x64; rv:128.0) Gecko/20100101 Firefox/128.0" version="22.1.21" etag="_dord9IOVjBRgpGRpg24" type="github">
  <diagram name="Page-1" id="6LtSAWjlYkghMCgNZHlP">
    <mxGraphModel>
      <root>
        <mxCell id="0" />
        <mxCell id="1" parent="0" />
      </root>
    </mxGraphModel>
  </diagram>
</mxfile>
